<?xml version="1.0" encoding="utf-8"?>
<!-- Generator: Adobe Illustrator 28.1.0, SVG Export Plug-In . SVG Version: 6.00 Build 0)  -->
<svg version="1.1" id="图层_1" xmlns="http://www.w3.org/2000/svg" xmlns:xlink="http://www.w3.org/1999/xlink" x="0px" y="0px"
	 viewBox="0 0 974 211" style="enable-background:new 0 0 974 211;" xml:space="preserve">
<style type="text/css">
	.st0{fill:#761CE7;}
	.st1{fill:url(#SVGID_1_);}
	.st2{fill:url(#SVGID_00000133528526052153487080000010267536157468950927_);}
	.st3{fill:url(#SVGID_00000169553990881211346500000004900450985865889167_);}
	.st4{fill:#2D267E;}
</style>
<g>
	<path class="st0" d="M233.2,107.1L233.2,107.1c0,32.5-13.5,61.8-35.2,82.6c-3.1,3-7.9,3.3-11.5,0.8l-16.9-11.7
		c22.4-15.9,37-42.1,37-71.6c0-4.4-0.3-8.8-1-13l20.2,4C230.1,99,233.2,102.7,233.2,107.1z"/>
	
		<linearGradient id="SVGID_1_" gradientUnits="userSpaceOnUse" x1="31.04" y1="104.855" x2="206.59" y2="104.855" gradientTransform="matrix(1 0 0 -1 0 212)">
		<stop  offset="0" style="stop-color:#6500FF"/>
		<stop  offset="1" style="stop-color:#D455A4"/>
	</linearGradient>
	<path class="st1" d="M205.6,94.1c-6.3-42.3-42.8-74.8-86.8-74.8C70.3,19.4,31,58.7,31,107.2c0,48.5,39.3,87.8,87.8,87.8
		c18.9,0,36.5-6,50.8-16.2c22.4-15.9,37-42.1,37-71.6C206.6,102.7,206.3,98.4,205.6,94.1z M102.4,132l-0.9-0.6
		C94,126,89,117.2,89,107.2c0-16.4,13.3-29.8,29.8-29.8c1.9,0,3.7,0.2,5.5,0.5l0.5,0.1c13.6,2.8,23.8,14.8,23.8,29.2
		c0,16.4-13.3,29.8-29.8,29.8C112.8,136.9,107.1,135.1,102.4,132L102.4,132z"/>
	
		<linearGradient id="SVGID_00000111192255898222610040000017825745032879548597_" gradientUnits="userSpaceOnUse" x1="84.3641" y1="131.2969" x2="244.0894" y2="48.0503" gradientTransform="matrix(1 0 0 -1 0 212)">
		<stop  offset="7.399140e-03" style="stop-color:#B23BBE"/>
		<stop  offset="0.2895" style="stop-color:#B73EBC"/>
		<stop  offset="0.6132" style="stop-color:#C548B5"/>
		<stop  offset="0.9563" style="stop-color:#DC58AA"/>
		<stop  offset="1" style="stop-color:#DF5AA8"/>
	</linearGradient>
	<path style="fill:url(#SVGID_00000111192255898222610040000017825745032879548597_);" d="M233.2,107.1L233.2,107.1
		c0,32.5-13.5,61.8-35.2,82.6c-3.1,3-7.9,3.3-11.5,0.8l-16.9-11.7c22.4-15.9,37-42.1,37-71.6c0-4.4-0.3-8.8-1-13l20.2,4
		C230.1,99,233.2,102.7,233.2,107.1z"/>
	
		<linearGradient id="SVGID_00000068644875355417419250000014885984322190772623_" gradientUnits="userSpaceOnUse" x1="204.3326" y1="68.4046" x2="108.9244" y2="109.2081" gradientTransform="matrix(1 0 0 -1 0 212)">
		<stop  offset="7.399140e-03" style="stop-color:#E1AEE8"/>
		<stop  offset="0.1324" style="stop-color:#D9A8E4"/>
		<stop  offset="0.3244" style="stop-color:#C498D8"/>
		<stop  offset="0.5594" style="stop-color:#A17EC5"/>
		<stop  offset="0.8259" style="stop-color:#705AAA"/>
		<stop  offset="1" style="stop-color:#4D4097"/>
	</linearGradient>
	<path style="fill:url(#SVGID_00000068644875355417419250000014885984322190772623_);" d="M206.6,107.2c0,29.5-14.6,55.7-37,71.6
		L102.4,132c4.7,3.1,10.3,4.9,16.4,4.9c16.4,0,29.8-13.3,29.8-29.8c0-14.4-10.2-26.4-23.8-29.2l80.8,16.2
		C206.3,98.4,206.6,102.7,206.6,107.2z"/>
	<g>
		<path class="st4" d="M386.3,111.4c-0.5-31-26.4-55.8-57.8-54.5c-28.6,1.2-51.9,24.5-53,53.2c-1.2,31.6,24,57.6,55.4,57.6
			c7.8,0,15.2-1.6,21.9-4.5c1.1-0.5,2.3,0.3,2.3,1.5v1.4c0,0.9,0.7,1.6,1.6,1.6h28.1c0.9,0,1.6-0.7,1.6-1.6v-53.8
			C386.3,112,386.3,111.7,386.3,111.4z M330.3,136.7c-13.8,0-25-11.2-25-25c0-13.8,11.2-25,25-25s25,11.2,25,25
			C355.3,125.5,344.1,136.7,330.3,136.7z"/>
		<path class="st4" d="M926,111.4c-0.5-31-26.4-55.8-57.8-54.5c-28.6,1.2-51.9,24.5-53,53.2c-1.2,31.6,24,57.6,55.4,57.6
			c7.8,0,15.2-1.6,21.9-4.5c1.1-0.5,2.3,0.3,2.3,1.5v1.4c0,0.9,0.7,1.6,1.6,1.6h28.1c0.9,0,1.6-0.7,1.6-1.6v-53.8
			C926,112,926,111.7,926,111.4z M870,136.7c-13.8,0-25-11.2-25-25c0-13.8,11.2-25,25-25s25,11.2,25,25
			C895,125.5,883.8,136.7,870,136.7z"/>
		<path class="st4" d="M502.8,64.5V166c0,1.2-1,2.1-2.1,2.1h-26c-1.2,0-2.1-1-2.1-2.1v-7.6c0-1.7-2.1-2.6-3.3-1.4
			c-7.4,7.6-17.8,12.3-29.2,12.3c-22.6,0-40.9-18.3-40.9-40.9v-64c0-1.2,1-2.2,2.1-2.2h26c1.2,0,2.1,1,2.1,2.2v53.8
			c0,11.7,9.1,21.6,20.8,22c12.2,0.4,22.3-9.4,22.3-21.5V64.5c0-1.2,1-2.2,2.1-2.2h26C501.8,62.3,502.8,63.3,502.8,64.5z"/>
		<path class="st4" d="M587.2,64.5V91c0,1.2-1,2.2-2.2,2.2h-9.2c0,0-1.6,0-4.2,0.4c-8.1,1.3-25.4,6.8-25.4,30.1v42.1
			c0,1.2-1,2.2-2.2,2.2h-26.3c-1.2,0-2.2-1-2.2-2.2v-48.2c0-28.1,19.3-42.7,33.6-49.7c6.8-3.3,14.2-5.1,21.7-5.5
			c0.9,0,1.8-0.1,2.7-0.1H585C586.2,62.3,587.2,63.3,587.2,64.5z"/>
		<path class="st4" d="M702.5,112.5v-0.1h0C701.4,80.1,684,60,650.4,60c-18.1,0-33,6.8-42.6,18.5c-7.6,9.2-11.9,21.4-11.9,35.8
			c0,8.5,1.5,16.3,4.4,23.2c7.9,18.9,26.1,30.5,50.9,30.5c18.5,0,33.7-6.5,44.3-17.6c0.5-0.6,0.5-1.5-0.1-2.1l-13.9-14.1
			c-0.6-0.6-1.4-0.6-2,0c-7.1,6.6-16.2,10.2-25.7,10.2c-11,0-19.7-5.1-24.5-14.1c-0.5-0.8,0.2-1.9,1.2-1.9h69.3
			c1.5,0,2.8-1.3,2.8-2.8v-5.7C702.6,117.4,702.6,114.9,702.5,112.5z M626.2,103.4c2.8-12.9,11.6-21.2,24.4-21.2
			c13.4,0,22.3,8.3,23.3,21.4c0.1,0.9-0.6,1.7-1.5,1.7h-44.8C626.7,105.2,626,104.3,626.2,103.4z"/>
		<path class="st4" d="M815.8,168.1h-29.4c-1,0-1.8-0.5-2.3-1.3l-23-38.7c-0.9-1.5-3.1-1.8-4.3-0.5l-10.4,11
			c-0.5,0.5-0.7,1.1-0.7,1.8v25c0,1.5-1.2,2.7-2.7,2.7h-24.9c-1.5,0-2.7-1.2-2.7-2.7V35.2c0-1.5,1.2-2.7,2.7-2.7H743
			c1.5,0,2.7,1.2,2.7,2.7v54.7c0,2.5,3,3.7,4.8,2l27.3-27.3c1.3-1.3,3.1-2,4.9-2h29.9c2.4,0,3.6,2.8,1.9,4.5l-33,34.7
			c-0.9,0.9-1,2.2-0.3,3.3l36.8,59C819.2,165.8,817.9,168.1,815.8,168.1z"/>
	</g>
</g>
</svg>
